<?xml version="1.0" encoding="utf-8"?>
<!-- Generator: Adobe Illustrator 16.0.0, SVG Export Plug-In . SVG Version: 6.00 Build 0)  -->
<!DOCTYPE svg PUBLIC "-//W3C//DTD SVG 1.1//EN" "http://www.w3.org/Graphics/SVG/1.1/DTD/svg11.dtd">
<svg version="1.1" id="Capa_1" xmlns="http://www.w3.org/2000/svg" xmlns:xlink="http://www.w3.org/1999/xlink" x="0px" y="0px"
	 width="64px" height="32.356px" viewBox="0 0 64 32.356" enable-background="new 0 0 64 32.356" xml:space="preserve">
<g>
	<g>
		<polygon fill="#5D120F" points="59.184,24.584 58.207,25.154 56.76,25.154 57.737,24.584 		"/>
		<polygon fill="#5D120F" points="58.482,27.438 57.505,28.01 58.206,25.155 59.184,24.584 		"/>
		<polygon fill="#5D120F" points="61.722,27.438 60.744,28.01 57.505,28.01 58.482,27.438 		"/>
		<polygon fill="#5D120F" points="57.041,27.438 56.063,28.01 53.078,28.01 54.055,27.438 		"/>
		<polygon fill="#5D120F" points="54.055,27.438 53.078,28.01 54.024,24.417 55.002,23.846 		"/>
		<polygon fill="#9A2021" points="57.089,22.642 61.276,22.602 62.615,24.005 61.722,27.438 58.482,27.438 59.184,24.584 
			57.737,24.584 57.041,27.438 54.055,27.438 55.002,23.846 		"/>
		<polygon fill="#5D120F" points="60.871,30.704 59.893,31.275 57.812,32.356 58.79,31.785 		"/>
		<polygon fill="#5D120F" points="57.809,30.181 56.832,30.752 57.261,29.003 58.238,28.432 		"/>
		<polygon fill="#5D120F" points="58.79,31.786 57.812,32.356 53.584,32.297 54.562,31.727 		"/>
		<polygon fill="#5D120F" points="54.562,31.727 53.584,32.297 52.235,31.205 53.213,30.634 		"/>
		<polygon fill="#5D120F" points="53.213,30.634 52.235,31.205 52.815,29.003 53.793,28.432 		"/>
		<polygon fill="#9A2021" points="57.809,30.181 58.238,28.432 61.463,28.432 60.871,30.704 58.79,31.785 54.562,31.727 
			53.212,30.634 53.793,28.432 56.798,28.432 56.362,30.22 		"/>
		<polygon fill="#5D120F" points="52.208,31.786 51.231,32.356 45.006,32.356 45.984,31.786 		"/>
		<polygon fill="#5D120F" points="45.984,31.786 45.006,32.356 46.007,29.003 46.985,28.432 		"/>
		<polygon fill="#9A2021" points="50.021,28.432 49.574,30.08 52.639,30.152 52.208,31.785 45.984,31.785 46.985,28.432 		"/>
		<polygon fill="#5D120F" points="50.29,27.438 49.312,28.01 46.302,28.01 47.28,27.438 		"/>
		<polygon fill="#5D120F" points="47.279,27.438 46.302,28.01 47.781,23.049 48.759,22.478 		"/>
		<polygon fill="#9A2021" points="50.29,27.438 47.28,27.438 48.759,22.478 51.634,22.478 		"/>
		<polygon fill="#5D120F" points="54.727,16.985 53.75,17.557 50.449,9.545 51.427,8.975 		"/>
	</g>
	<g>
		<defs>
			<path id="SVGID_1_" d="M48.475,9.416c0.651,0.026,1.31,0.07,1.975,0.129l0.978-0.57c-0.665-0.06-1.324-0.103-1.976-0.13
				L48.475,9.416z"/>
		</defs>
		<clipPath id="SVGID_2_">
			<use xlink:href="#SVGID_1_"  overflow="visible"/>
		</clipPath>
		<path clip-path="url(#SVGID_2_)" fill="#5E140F" d="M51.427,8.975l-0.978,0.57c-0.665-0.059-1.323-0.102-1.975-0.129l0.978-0.57
			C50.103,8.872,50.762,8.915,51.427,8.975"/>
	</g>
	<g>
		<defs>
			<path id="SVGID_3_" d="M44.551,1.1l-0.978,0.57c0.823-0.479,1.731-0.701,2.638-0.701c3.38,0,6.717,3.082,5.37,7.285l0.978-0.569
				c1.347-4.205-1.99-7.286-5.37-7.286C46.283,0.398,45.374,0.62,44.551,1.1"/>
		</defs>
		<clipPath id="SVGID_4_">
			<use xlink:href="#SVGID_3_"  overflow="visible"/>
		</clipPath>
		<path clip-path="url(#SVGID_4_)" fill="#5E140F" d="M52.559,7.685l-0.978,0.57c1.348-4.204-1.99-7.286-5.37-7.286
			c-0.906,0-1.815,0.222-2.638,0.702L44.551,1.1c0.823-0.48,1.732-0.701,2.638-0.701C50.568,0.398,53.906,3.479,52.559,7.685"/>
	</g>
	<g>
		<defs>
			<path id="SVGID_5_" d="M46.101,3.783l-0.978,0.57c0.372-0.217,0.801-0.335,1.239-0.335c0.605,0,1.228,0.227,1.74,0.731
				c1.011,0.996,0.822,2.164,0.372,2.946l0.977-0.571c0.451-0.781,0.64-1.95-0.371-2.945c-0.512-0.505-1.135-0.732-1.741-0.732
				C46.902,3.447,46.473,3.566,46.101,3.783"/>
		</defs>
		<clipPath id="SVGID_6_">
			<use xlink:href="#SVGID_5_"  overflow="visible"/>
		</clipPath>
		<path clip-path="url(#SVGID_6_)" fill="#5E140F" d="M49.451,7.125l-0.978,0.571c0.45-0.782,0.639-1.95-0.371-2.946
			c-0.513-0.505-1.135-0.731-1.741-0.731c-0.438,0-0.866,0.118-1.238,0.335l0.978-0.57c0.373-0.217,0.801-0.336,1.238-0.336
			c0.605,0,1.228,0.228,1.74,0.732C50.089,5.175,49.901,6.344,49.451,7.125"/>
	</g>
	<g>
		<defs>
			<path id="SVGID_7_" d="M45.271,2.454l-0.978,0.571c0.634-0.371,1.369-0.576,2.112-0.576c0.776,0,1.563,0.224,2.256,0.718
				c1.579,1.124,2.086,2.848,1.49,4.63l0.978-0.571c0.596-1.782,0.089-3.506-1.49-4.63c-0.693-0.493-1.48-0.717-2.257-0.717
				C46.639,1.879,45.905,2.084,45.271,2.454"/>
		</defs>
		<clipPath id="SVGID_8_">
			<use xlink:href="#SVGID_7_"  overflow="visible"/>
		</clipPath>
		<path clip-path="url(#SVGID_8_)" fill="#5E140F" d="M51.129,7.226l-0.978,0.57c0.597-1.781,0.089-3.505-1.49-4.629
			c-0.693-0.494-1.479-0.718-2.256-0.718c-0.744,0-1.479,0.205-2.113,0.575l0.978-0.57c0.634-0.37,1.369-0.575,2.113-0.575
			c0.776,0,1.562,0.223,2.256,0.718C51.218,3.72,51.726,5.444,51.129,7.226"/>
	</g>
	<g>
		<defs>
			<path id="SVGID_9_" d="M46.033,5.849c-0.203,0.119-0.337,0.34-0.334,0.593c0.003,0.246,0.138,0.463,0.335,0.582l0.978-0.571
				c-0.198-0.119-0.333-0.335-0.336-0.582c-0.003-0.253,0.132-0.473,0.335-0.592L46.033,5.849z"/>
		</defs>
		<clipPath id="SVGID_10_">
			<use xlink:href="#SVGID_9_"  overflow="visible"/>
		</clipPath>
		<path clip-path="url(#SVGID_10_)" fill="#5E140F" d="M47.012,6.452l-0.978,0.571c-0.198-0.119-0.333-0.336-0.335-0.582
			c-0.003-0.253,0.131-0.474,0.335-0.593l0.977-0.57c-0.203,0.119-0.338,0.339-0.334,0.592C46.679,6.116,46.813,6.333,47.012,6.452"
			/>
	</g>
	<g>
		<polygon fill="#5D120F" points="47.02,7.054 46.042,7.625 46.034,7.023 47.012,6.452 		"/>
	</g>
	<g>
		<defs>
			<path id="SVGID_11_" d="M44.988,3.941c-0.511,0.299-0.967,0.794-1.294,1.522l0.978-0.571c0.327-0.729,0.783-1.224,1.294-1.521
				L44.988,3.941z"/>
		</defs>
		<clipPath id="SVGID_12_">
			<use xlink:href="#SVGID_11_"  overflow="visible"/>
		</clipPath>
		<path clip-path="url(#SVGID_12_)" fill="#5E140F" d="M44.671,4.893l-0.978,0.571c0.327-0.729,0.783-1.224,1.294-1.522l0.978-0.57
			C45.455,3.669,44.999,4.164,44.671,4.893"/>
	</g>
	<g>
		<polygon fill="#5D120F" points="52.952,19.221 51.974,19.792 53.749,17.557 54.727,16.985 		"/>
	</g>
	<g>
		<defs>
			<path id="SVGID_13_" d="M43.694,5.464c-0.276,0.718-0.191,1.5,0.147,2.201l0.978-0.571c-0.338-0.7-0.423-1.481-0.147-2.201
				L43.694,5.464z"/>
		</defs>
		<clipPath id="SVGID_14_">
			<use xlink:href="#SVGID_13_"  overflow="visible"/>
		</clipPath>
		<path clip-path="url(#SVGID_14_)" fill="#5E140F" d="M44.818,7.094l-0.978,0.571c-0.338-0.701-0.423-1.482-0.147-2.201
			l0.978-0.571C44.395,5.612,44.48,6.394,44.818,7.094"/>
	</g>
	<g>
		<defs>
			<path id="SVGID_15_" d="M44.138,2.633c-1.658,0.968-2.713,2.948-1.946,5.153l0.978-0.571c-0.768-2.205,0.288-4.185,1.946-5.153
				L44.138,2.633z"/>
		</defs>
		<clipPath id="SVGID_16_">
			<use xlink:href="#SVGID_15_"  overflow="visible"/>
		</clipPath>
		<path clip-path="url(#SVGID_16_)" fill="#5E140F" d="M43.17,7.215l-0.978,0.571c-0.768-2.205,0.288-4.186,1.945-5.153l0.978-0.571
			C43.458,3.03,42.402,5.01,43.17,7.215"/>
	</g>
	<g>
		<defs>
			<path id="SVGID_17_" d="M47.489,8.919c-1.239,0-2.434,0.043-3.658,0.067l-0.978,0.57c1.224-0.024,2.419-0.067,3.658-0.067
				c0.557,0,1.322-0.051,1.963-0.073l0.977-0.571C48.811,8.868,48.046,8.919,47.489,8.919"/>
		</defs>
		<clipPath id="SVGID_18_">
			<use xlink:href="#SVGID_17_"  overflow="visible"/>
		</clipPath>
		<path clip-path="url(#SVGID_18_)" fill="#5E140F" d="M49.452,8.845l-0.978,0.571c-0.642,0.022-1.406,0.073-1.962,0.073
			c-1.239,0-2.435,0.043-3.658,0.067l0.977-0.57c1.223-0.024,2.419-0.067,3.658-0.067C48.046,8.919,48.811,8.868,49.452,8.845"/>
	</g>
	<g>
		<defs>
			<path id="SVGID_19_" d="M43.139,9.057l-0.977,0.57c0.23-0.026,0.46-0.049,0.691-0.07l0.978-0.57
				C43.6,9.008,43.37,9.03,43.139,9.057"/>
		</defs>
		<clipPath id="SVGID_20_">
			<use xlink:href="#SVGID_19_"  overflow="visible"/>
		</clipPath>
		<path clip-path="url(#SVGID_20_)" fill="#5E140F" d="M43.831,8.986l-0.977,0.57c-0.231,0.021-0.461,0.044-0.692,0.071l0.978-0.571
			C43.37,9.03,43.6,9.007,43.831,8.986"/>
	</g>
	<g>
		<defs>
			<path id="SVGID_21_" d="M43.402,1.332c-1.712,0.999-2.939,2.856-2.915,4.781c0.015,1.146,0.067,1.685,0.472,2.577l0.978-0.571
				c-0.406-0.892-0.457-1.43-0.472-2.575c-0.025-1.927,1.202-3.783,2.914-4.783L43.402,1.332z"/>
		</defs>
		<clipPath id="SVGID_22_">
			<use xlink:href="#SVGID_21_"  overflow="visible"/>
		</clipPath>
		<path clip-path="url(#SVGID_22_)" fill="#5E140F" d="M41.938,8.119L40.959,8.69c-0.405-0.893-0.457-1.431-0.471-2.576
			c-0.025-1.926,1.202-3.783,2.914-4.782l0.978-0.571c-1.712,0.999-2.939,2.856-2.914,4.782C41.48,6.689,41.532,7.228,41.938,8.119"
			/>
	</g>
	<g>
		<polygon fill="#5D120F" points="39.543,13.238 38.565,13.809 36.272,13.824 37.25,13.254 		"/>
	</g>
	<g>
		<defs>
			<path id="SVGID_23_" d="M36.678,12.393c-0.074,0.012-0.139,0.022-0.19,0.053l-0.978,0.571c0.052-0.03,0.117-0.042,0.19-0.053
				c0.053-0.008,0.111-0.025,0.173-0.025c0.093,0,0.195,0.037,0.303,0.191c0.103,0.148,0.103,0.394,0.097,0.694l0.978-0.57
				c0.005-0.301,0.005-0.546-0.097-0.693c-0.108-0.156-0.21-0.192-0.303-0.192C36.789,12.368,36.73,12.385,36.678,12.393"/>
		</defs>
		<clipPath id="SVGID_24_">
			<use xlink:href="#SVGID_23_"  overflow="visible"/>
		</clipPath>
		<path clip-path="url(#SVGID_24_)" fill="#5E140F" d="M37.25,13.254l-0.978,0.57c0.006-0.301,0.006-0.546-0.096-0.694
			c-0.108-0.154-0.21-0.191-0.303-0.191c-0.062,0-0.121,0.017-0.173,0.024c-0.074,0.012-0.138,0.023-0.189,0.054l0.977-0.571
			c0.052-0.03,0.116-0.042,0.19-0.053c0.053-0.008,0.11-0.024,0.173-0.024c0.093,0,0.195,0.036,0.303,0.192
			C37.256,12.708,37.256,12.953,37.25,13.254"/>
	</g>
	<g>
		<polygon fill="#5D120F" points="64,20.848 63.023,21.419 38.427,21.419 39.405,20.848 		"/>
		<path fill="#9A2021" d="M39.405,20.848l2.532-12.729c-0.405-0.892-0.457-1.43-0.471-2.576c-0.037-2.812,2.597-5.478,5.512-5.541
			C47.033,0.001,47.087,0,47.141,0c4.634,0,7.277,4.375,5.638,8.307c0.684,1.89,1.527,3.779,2.529,5.669
			c0.855,1.897,2.197,2.806,3.901,2.969c3.33,1.016,4.745,1.993,4.791,3.903H39.405z M54.727,16.985l-3.3-8.011
			c-0.665-0.06-1.324-0.102-1.975-0.13c-0.642,0.023-1.406,0.074-1.963,0.074c-1.239,0-2.435,0.043-3.658,0.067
			C43.6,9.007,43.37,9.03,43.14,9.057l-1.876,10.164h11.688L54.727,16.985 M42.8,2.752c-1.237,1.798-1.043,3.485-0.695,4.594
			c0.347-0.051,0.703-0.094,1.066-0.131c-1.085-3.112,1.468-5.778,4.215-5.778c1.175,0,2.386,0.487,3.363,1.636
			c1.315,1.547,1.149,3.141,0.813,4.184c0.288,0.022,0.581,0.046,0.876,0.07c0.039,0.119,0.079,0.238,0.121,0.358
			c1.347-4.205-1.99-7.286-5.37-7.286C45.563,0.398,43.929,1.11,42.8,2.752 M47.296,3.014c1.716,0,3.386,1.608,2.806,3.722
			c-0.042,0.155-0.1,0.292-0.164,0.414c0.392,0.023,0.788,0.048,1.19,0.076c0.597-1.782,0.089-3.506-1.49-4.629
			c-0.692-0.494-1.479-0.718-2.256-0.718c-2.468,0-4.831,2.26-3.763,5.294c0.391-0.033,0.791-0.06,1.199-0.079
			c-0.338-0.7-0.423-1.481-0.147-2.2C45.267,3.566,46.29,3.014,47.296,3.014 M47.355,5.187c0.38,0,0.691,0.306,0.696,0.684
			c0.004,0.246-0.125,0.463-0.32,0.582l0.008,0.611c0.559,0.012,1.129,0.033,1.712,0.062c0.451-0.781,0.639-1.95-0.372-2.945
			c-0.512-0.505-1.135-0.731-1.74-0.731c-1.257,0-2.441,0.976-2.421,2.471c0.005,0.396,0.155,0.806,0.363,1.156
			c0.452-0.015,0.914-0.022,1.384-0.022c0.118,0,0.236,0,0.355,0.001l-0.008-0.602c-0.198-0.119-0.333-0.336-0.336-0.582
			C46.671,5.492,46.975,5.187,47.355,5.187"/>
		<polygon fill="#5D120F" points="39.405,20.848 38.427,21.419 40.959,8.69 41.938,8.119 		"/>
		<polygon fill="#5D120F" points="36.511,16.505 35.534,17.076 35.516,15.784 36.493,15.213 		"/>
	</g>
	<g>
		<defs>
			<path id="SVGID_25_" d="M36.837,17.745c-0.089,0-0.176-0.001-0.266-0.002c-0.092-0.001-0.184-0.002-0.276-0.002
				c-0.106,0-0.212,0.001-0.317,0.005c-0.08,0.003-0.157,0.004-0.232,0.004l-0.978,0.57c0.076,0,0.153-0.001,0.233-0.004
				c0.104-0.003,0.21-0.004,0.316-0.004c0.093,0,0.184,0.001,0.276,0.002c0.089,0,0.177,0.001,0.265,0.001
				c0.531,0,1.038-0.028,1.436-0.26l0.977-0.571C37.875,17.717,37.367,17.745,36.837,17.745"/>
		</defs>
		<clipPath id="SVGID_26_">
			<use xlink:href="#SVGID_25_"  overflow="visible"/>
		</clipPath>
		<path clip-path="url(#SVGID_26_)" fill="#5E140F" d="M38.271,17.484l-0.978,0.571c-0.397,0.231-0.904,0.26-1.435,0.26
			c-0.088,0-0.176,0-0.265-0.001c-0.092-0.001-0.185-0.002-0.276-0.002c-0.106,0-0.212,0.001-0.317,0.004
			c-0.079,0.003-0.157,0.004-0.233,0.004l0.978-0.57c0.076,0,0.153-0.001,0.233-0.004c0.104-0.004,0.21-0.005,0.316-0.005
			c0.092,0,0.185,0.001,0.276,0.002c0.089,0.001,0.177,0.002,0.265,0.002C37.367,17.745,37.875,17.716,38.271,17.484"/>
	</g>
	<g>
		<defs>
			<path id="SVGID_27_" d="M34.311,11.577c-0.594,0.347-1.075,0.966-1.189,1.694c-0.328,2.089,0.604,2.277,2.394,2.512l0.978-0.57
				c-1.791-0.234-2.722-0.424-2.394-2.513c0.114-0.729,0.595-1.347,1.189-1.693L34.311,11.577z"/>
		</defs>
		<clipPath id="SVGID_28_">
			<use xlink:href="#SVGID_27_"  overflow="visible"/>
		</clipPath>
		<path clip-path="url(#SVGID_28_)" fill="#5E140F" d="M36.493,15.213l-0.978,0.571c-1.791-0.235-2.722-0.424-2.394-2.513
			c0.115-0.729,0.596-1.348,1.19-1.694l0.978-0.571c-0.594,0.347-1.076,0.966-1.19,1.694C33.771,14.79,34.702,14.979,36.493,15.213"
			/>
	</g>
	<g>
		<polygon fill="#5D120F" points="33.523,16.918 32.545,17.488 32.545,15.979 33.523,15.408 		"/>
		<path fill="#9A2021" d="M35.746,17.75c-1.322,0-2.084-0.419-2.223-0.832l0-1.51l2.155-0.005l0.031,1.101l0.801,0.001l-0.018-1.292
			c-1.791-0.234-2.722-0.423-2.394-2.513c0.134-0.85,0.767-1.551,1.496-1.844c0.249-0.1,0.506-0.116,0.765-0.116
			c0.064,0,0.129,0.001,0.194,0.002c0.067,0.001,0.135,0.003,0.204,0.003c0.049,0,0.099-0.001,0.148-0.003
			c0.194-0.007,0.405-0.017,0.615-0.017c0.311,0,0.619,0.021,0.865,0.1c0.642,0.206,1.014,0.651,1.112,0.941l0.045,1.472
			l-2.293,0.016c0.005-0.301,0.006-0.546-0.097-0.693c-0.108-0.156-0.21-0.192-0.303-0.192c-0.062,0-0.12,0.017-0.173,0.024
			c-0.169,0.026-0.289,0.05-0.32,0.309c-0.05,0.397-0.13,0.998,0.185,1.012c0.835,0.039,1.945,0.12,2.223,0.896
			c0.319,0.891,0.495,1.21,0.089,2.182c-0.367,0.88-1.163,0.954-2.018,0.954c-0.088,0-0.177-0.001-0.266-0.002
			c-0.092-0.001-0.185-0.002-0.276-0.002c-0.107,0-0.213,0.001-0.317,0.005C35.898,17.749,35.821,17.75,35.746,17.75"/>
	</g>
	<g>
		<defs>
			<path id="SVGID_29_" d="M32.544,17.489c0.139,0.413,0.901,0.831,2.224,0.831l0.978-0.57c-1.322,0-2.085-0.419-2.224-0.833
				L32.544,17.489z"/>
		</defs>
		<clipPath id="SVGID_30_">
			<use xlink:href="#SVGID_29_"  overflow="visible"/>
		</clipPath>
		<path clip-path="url(#SVGID_30_)" fill="#5E140F" d="M35.746,17.75l-0.978,0.57c-1.322,0-2.084-0.419-2.223-0.832l0.978-0.57
			C33.661,17.331,34.424,17.75,35.746,17.75"/>
	</g>
	<g>
		<polygon fill="#5D120F" points="42.885,24.419 41.908,24.99 40.461,24.99 41.439,24.419 		"/>
		<polygon fill="#5D120F" points="42.144,27.438 41.167,28.01 41.908,24.99 42.885,24.419 		"/>
		<polygon fill="#5D120F" points="45.381,27.438 44.403,28.01 41.167,28.01 42.144,27.438 		"/>
		<polygon fill="#5D120F" points="30.967,14.926 29.989,15.496 29.753,13.093 30.729,12.521 		"/>
		<polygon fill="#5D120F" points="40.702,27.438 39.724,28.01 36.524,28.01 37.501,27.438 		"/>
		<polygon fill="#5D120F" points="37.501,27.438 36.524,28.01 37.601,24.211 38.579,23.64 		"/>
		<polygon fill="#9A2021" points="44.978,22.438 46.316,23.841 45.381,27.438 42.144,27.438 42.885,24.419 41.438,24.419 
			40.702,27.438 37.501,27.438 38.578,23.64 40.791,22.478 		"/>
		<polygon fill="#5D120F" points="30.484,17.625 29.507,18.195 29.5,17.068 30.477,16.498 		"/>
		<polygon fill="#5D120F" points="32.837,17.625 31.859,18.195 29.506,18.195 30.484,17.625 		"/>
		<polygon fill="#5D120F" points="30.477,16.498 29.5,17.068 28.333,17.08 29.31,16.51 		"/>
		<polygon fill="#5D120F" points="33.559,25.812 32.581,26.382 33.818,22.885 34.795,22.313 		"/>
		<polygon fill="#5D120F" points="26.969,17.637 25.992,18.208 28.697,11.358 29.675,10.787 		"/>
		<path fill="#9A2021" d="M28.917,17.592l-1.947,0.045l2.705-6.85h3.065l0.098,6.838h-2.353l-0.008-1.128L29.31,16.51L28.917,17.592
			z M30.73,12.521l-0.936,2.404h1.173L30.73,12.521"/>
		<polygon fill="#5D120F" points="28.917,17.592 27.939,18.162 25.992,18.208 26.97,17.637 		"/>
		<polygon fill="#5D120F" points="25.108,14.885 24.131,15.456 24.909,11.283 25.887,10.712 		"/>
	</g>
	<g>
		<defs>
			<path id="SVGID_31_" d="M24.131,15.456c-0.082,0.438-0.166,0.889-0.295,1.132c-0.087,0.165-0.189,0.276-0.293,0.337l0.977-0.571
				c0.104-0.061,0.207-0.172,0.294-0.337c0.128-0.242,0.212-0.693,0.294-1.132L24.131,15.456z"/>
		</defs>
		<clipPath id="SVGID_32_">
			<use xlink:href="#SVGID_31_"  overflow="visible"/>
		</clipPath>
		<path clip-path="url(#SVGID_32_)" fill="#5E140F" d="M24.521,16.354l-0.977,0.57c0.104-0.06,0.206-0.171,0.292-0.336
			c0.129-0.243,0.213-0.693,0.295-1.132l0.978-0.571c-0.082,0.438-0.167,0.89-0.295,1.132
			C24.727,16.182,24.625,16.293,24.521,16.354"/>
	</g>
	<g>
		<defs>
			<path id="SVGID_33_" d="M24.525,17.602c-0.213,0-0.437-0.006-0.666-0.006l-0.978,0.57c0.229,0,0.452,0.006,0.666,0.006
				c0.489,0,0.927-0.031,1.274-0.233l0.978-0.571C25.452,17.57,25.014,17.602,24.525,17.602"/>
		</defs>
		<clipPath id="SVGID_34_">
			<use xlink:href="#SVGID_33_"  overflow="visible"/>
		</clipPath>
		<path clip-path="url(#SVGID_34_)" fill="#5E140F" d="M25.8,17.367l-0.978,0.571c-0.347,0.203-0.785,0.233-1.274,0.233
			c-0.213,0-0.436-0.006-0.665-0.006l0.978-0.57c0.229,0,0.452,0.006,0.665,0.006C25.015,17.602,25.452,17.57,25.8,17.367"/>
	</g>
	<g>
		<polygon fill="#5D120F" points="21.892,15.003 20.915,15.573 21.694,11.212 22.671,10.641 		"/>
		<polygon fill="#5D120F" points="20.887,10.041 19.909,10.612 17.886,10.641 18.863,10.069 		"/>
		<polygon fill="#5D120F" points="28.764,27.438 27.786,28.01 29.052,22.885 30.03,22.313 		"/>
		<polygon fill="#9A2021" points="34.795,22.313 37.659,22.313 36.199,27.438 28.763,27.438 30.03,22.313 32.811,22.313 
			33.559,25.812 		"/>
		<polygon fill="#5D120F" points="36.199,27.438 35.222,28.01 27.786,28.01 28.763,27.438 		"/>
		<path fill="#9A2021" d="M23.86,17.596c-0.782,0-1.427-0.038-1.755-0.431c-0.382-0.459-0.363-1.334-0.213-2.162l0.78-4.362
			l2.042,0.022l-0.676,4.152c-0.089,0.549-0.147,0.975-0.08,1.227c0.065,0.24,0.21,0.367,0.373,0.367
			c0.162,0,0.342-0.126,0.483-0.392c0.128-0.243,0.213-0.694,0.294-1.133l0.779-4.173l2.134,0.023l-0.994,4.068
			c-0.221,0.906-0.454,1.987-1.106,2.482c-0.365,0.276-0.849,0.314-1.396,0.314C24.312,17.601,24.089,17.596,23.86,17.596"/>
	</g>
	<g>
		<defs>
			<path id="SVGID_35_" d="M20.915,15.573c-0.149,0.829-0.169,1.703,0.213,2.163c0.327,0.392,0.972,0.43,1.754,0.43l0.978-0.57
				c-0.781,0-1.427-0.038-1.754-0.431c-0.382-0.459-0.362-1.334-0.213-2.162L20.915,15.573z"/>
		</defs>
		<clipPath id="SVGID_36_">
			<use xlink:href="#SVGID_35_"  overflow="visible"/>
		</clipPath>
		<path clip-path="url(#SVGID_36_)" fill="#5E140F" d="M23.86,17.596l-0.978,0.57c-0.782,0-1.427-0.038-1.754-0.43
			c-0.382-0.46-0.363-1.335-0.214-2.163l0.978-0.57c-0.149,0.828-0.169,1.703,0.213,2.162C22.433,17.558,23.079,17.596,23.86,17.596
			"/>
	</g>
	<g>
		<defs>
			<path id="SVGID_37_" d="M19.079,14.954l0.015-0.008C19.088,14.949,19.084,14.952,19.079,14.954 M20.089,14.365
				c-0.012,0.007-0.023,0.012-0.033,0.019l-0.962,0.562c0.006-0.004,0.012-0.007,0.018-0.01c0.203-0.104,0.482-0.24,0.717-0.378
				l0.978-0.57C20.572,14.125,20.292,14.26,20.089,14.365"/>
		</defs>
		<clipPath id="SVGID_38_">
			<use xlink:href="#SVGID_37_"  overflow="visible"/>
		</clipPath>
		<path clip-path="url(#SVGID_38_)" fill="#5E140F" d="M20.807,13.987l-0.978,0.571c-0.234,0.138-0.514,0.272-0.716,0.378
			c-0.012,0.006-0.023,0.012-0.033,0.018l0.977-0.57c0.01-0.007,0.021-0.013,0.033-0.019C20.292,14.261,20.571,14.125,20.807,13.987
			"/>
	</g>
	<g>
		<defs>
			<path id="SVGID_39_" d="M18.136,12.158l-0.978,0.571c0.169,0,0.3-0.006,0.407-0.006c0.218,0,0.33,0.022,0.445,0.159
				c0.098,0.116,0.13,0.281,0.094,0.497l0.978-0.57c0.036-0.217,0.004-0.382-0.094-0.497c-0.116-0.137-0.227-0.159-0.445-0.159
				C18.437,12.153,18.305,12.158,18.136,12.158"/>
		</defs>
		<clipPath id="SVGID_40_">
			<use xlink:href="#SVGID_39_"  overflow="visible"/>
		</clipPath>
		<path clip-path="url(#SVGID_40_)" fill="#5E140F" d="M19.082,12.81l-0.978,0.57c0.036-0.216,0.004-0.381-0.094-0.497
			c-0.116-0.136-0.228-0.159-0.445-0.159c-0.106,0-0.238,0.005-0.407,0.005l0.978-0.57c0.169,0,0.301-0.005,0.407-0.005
			c0.218,0,0.329,0.022,0.445,0.159C19.086,12.428,19.118,12.593,19.082,12.81"/>
	</g>
	<g>
		<defs>
			<path id="SVGID_41_" d="M18.104,13.38c-0.024,0.146-0.061,0.355-0.154,0.467c-0.049,0.059-0.104,0.104-0.162,0.138l0.977-0.569
				c0.06-0.035,0.114-0.08,0.163-0.139c0.093-0.111,0.13-0.321,0.154-0.467L18.104,13.38z"/>
		</defs>
		<clipPath id="SVGID_42_">
			<use xlink:href="#SVGID_41_"  overflow="visible"/>
		</clipPath>
		<path clip-path="url(#SVGID_42_)" fill="#5E140F" d="M18.766,13.414l-0.978,0.57c0.059-0.033,0.114-0.079,0.162-0.138
			c0.093-0.111,0.13-0.321,0.154-0.467l0.978-0.57c-0.024,0.146-0.061,0.355-0.154,0.466C18.879,13.335,18.825,13.38,18.766,13.414"
			/>
	</g>
	<g>
		<polygon fill="#5D120F" points="24.739,24.429 23.762,24.999 23.488,24.942 24.466,24.372 		"/>
		<polygon fill="#5D120F" points="39.004,18.711 38.026,19.281 19.336,19.281 20.313,18.711 		"/>
		<polygon fill="#5D120F" points="20.313,18.711 19.336,19.281 19.329,18.757 20.307,18.187 		"/>
		<polygon fill="#9A2021" points="20.313,18.711 20.307,18.187 38.997,18.187 39.004,18.711 		"/>
	</g>
	<g>
		<defs>
			<path id="SVGID_43_" d="M17.739,14.922l-0.978,0.571c0.058,0,0.12-0.004,0.181-0.004c0.111,0,0.217,0.012,0.287,0.078
				c0.083,0.077,0.198,0.226,0.157,0.494l0.978-0.569c0.041-0.27-0.075-0.418-0.157-0.496c-0.069-0.066-0.176-0.078-0.287-0.078
				C17.859,14.918,17.797,14.922,17.739,14.922"/>
		</defs>
		<clipPath id="SVGID_44_">
			<use xlink:href="#SVGID_43_"  overflow="visible"/>
		</clipPath>
		<path clip-path="url(#SVGID_44_)" fill="#5E140F" d="M18.363,15.491l-0.978,0.57c0.042-0.269-0.075-0.416-0.157-0.494
			c-0.069-0.067-0.176-0.078-0.286-0.078c-0.062,0-0.123,0.004-0.181,0.004l0.978-0.571c0.058,0,0.12-0.004,0.18-0.004
			c0.11,0,0.217,0.012,0.287,0.078C18.289,15.074,18.404,15.223,18.363,15.491"/>
	</g>
	<g>
		<polygon fill="#5D120F" points="17.739,14.922 16.761,15.493 16.605,15.493 17.583,14.922 		"/>
		<polygon fill="#5D120F" points="24.712,27.438 23.734,28.01 23.762,24.999 24.739,24.429 		"/>
		<polygon fill="#5D120F" points="27.244,27.438 26.266,28.01 23.734,28.01 24.712,27.438 		"/>
		<polygon fill="#5D120F" points="18.036,17.597 17.058,18.167 17.386,16.062 18.363,15.491 		"/>
		<polygon fill="#5D120F" points="20.358,17.617 19.38,18.188 17.058,18.167 18.036,17.596 		"/>
		<polygon fill="#5D120F" points="12.989,10.039 12.011,10.609 10.828,10.696 11.805,10.125 		"/>
		<polygon fill="#5D120F" points="18.863,10.069 17.886,10.641 7.806,6.539 8.783,5.968 		"/>
		<polygon fill="#5D120F" points="14.813,17.517 13.835,18.088 15.062,11.259 16.04,10.688 		"/>
		<polygon fill="#5D120F" points="14.945,13.287 13.968,13.858 11.57,13.853 12.548,13.282 		"/>
	</g>
	<g>
		<defs>
			<path id="SVGID_45_" d="M11.8,12.248l-0.977,0.571c0.094-0.056,0.222-0.082,0.34-0.082c0.117,0,0.225,0.026,0.28,0.077
				c0.145,0.133,0.098,0.786,0.127,1.038l0.977-0.57c-0.029-0.252,0.018-0.905-0.127-1.038c-0.055-0.052-0.163-0.078-0.28-0.078
				S11.895,12.193,11.8,12.248"/>
		</defs>
		<clipPath id="SVGID_46_">
			<use xlink:href="#SVGID_45_"  overflow="visible"/>
		</clipPath>
		<path clip-path="url(#SVGID_46_)" fill="#5E140F" d="M12.547,13.282l-0.977,0.57c-0.029-0.252,0.018-0.904-0.128-1.038
			c-0.054-0.051-0.162-0.077-0.279-0.077c-0.118,0-0.246,0.026-0.34,0.082l0.978-0.57c0.095-0.056,0.222-0.083,0.34-0.083
			s0.225,0.027,0.28,0.077C12.565,12.377,12.519,13.029,12.547,13.282"/>
	</g>
	<g>
		<polygon fill="#5D120F" points="20.608,27.438 19.63,28.01 22.287,22.72 23.264,22.148 		"/>
		<polygon fill="#5D120F" points="23.074,27.438 22.096,28.01 19.631,28.01 20.607,27.438 		"/>
		<polygon fill="#9A2021" points="20.608,27.438 23.264,22.148 27.336,22.067 27.244,27.438 24.712,27.438 24.739,24.429 
			24.466,24.372 23.074,27.438 		"/>
		<polygon fill="#5D120F" points="16.693,17.538 15.716,18.107 13.835,18.088 14.813,17.517 		"/>
		<path fill="#9A2021" d="M16.04,10.688l4.201,0.046c1.355,0.015,1.466,2.211,0.985,2.932c-0.147,0.219-0.768,0.511-1.137,0.7
			c-0.584,0.301,0.963,0.363,0.786,1.172c-0.05,0.999-0.104,1.651-0.517,2.08l-2.323-0.021l0.327-2.104
			c0.042-0.27-0.074-0.417-0.156-0.494c-0.07-0.067-0.177-0.078-0.287-0.078c-0.061,0-0.123,0.003-0.181,0.003h-0.156l-0.889,2.616
			l-1.88-0.021L16.04,10.688z M19.082,12.81c0.036-0.217,0.004-0.382-0.094-0.497c-0.116-0.137-0.228-0.159-0.445-0.159
			c-0.106,0-0.238,0.005-0.407,0.005l-0.226,1.359c0.104,0,0.21,0.005,0.315,0.005c0.267,0,0.524-0.03,0.702-0.246
			C19.021,13.165,19.058,12.955,19.082,12.81"/>
		<polygon fill="#5D120F" points="39.088,20.498 38.11,21.068 15.325,21.068 16.302,20.498 		"/>
		<polygon fill="#5D120F" points="11.805,10.125 10.828,10.696 6.16,5.965 7.137,5.395 		"/>
		<polygon fill="#5D120F" points="11.579,15.006 10.602,15.576 10.639,14.63 11.616,14.06 		"/>
		<polygon fill="#5D120F" points="11.887,15.034 10.91,15.604 10.602,15.576 11.579,15.006 		"/>
		<polygon fill="#5D120F" points="11.867,16.021 10.89,16.593 10.91,15.604 11.887,15.034 		"/>
	</g>
	<g>
		<defs>
			<path id="SVGID_47_" d="M10.89,16.593c-0.001,0.083-0.058,0.15-0.143,0.199l0.978-0.571c0.084-0.05,0.141-0.116,0.143-0.199
				L10.89,16.593z"/>
		</defs>
		<clipPath id="SVGID_48_">
			<use xlink:href="#SVGID_47_"  overflow="visible"/>
		</clipPath>
		<path clip-path="url(#SVGID_48_)" fill="#5E140F" d="M11.725,16.221l-0.978,0.571c0.085-0.05,0.142-0.116,0.143-0.199l0.978-0.571
			C11.865,16.104,11.809,16.171,11.725,16.221"/>
	</g>
	<g>
		<polygon fill="#5D120F" points="18.938,27.438 17.96,28.01 14.806,28.01 15.784,27.438 		"/>
		<polygon fill="#5D120F" points="15.784,27.438 14.806,28.01 15.059,26.978 16.036,26.407 		"/>
		<polygon fill="#5D120F" points="14.216,26.353 13.238,26.924 15.863,22.713 16.84,22.143 		"/>
	</g>
	<g>
		<defs>
			<path id="SVGID_49_" d="M11.204,21.76l-0.978,0.571c1.448-0.847,3.165-1.263,5.1-1.263l0.978-0.57
				C14.368,20.498,12.652,20.914,11.204,21.76"/>
		</defs>
		<clipPath id="SVGID_50_">
			<use xlink:href="#SVGID_49_"  overflow="visible"/>
		</clipPath>
		<path clip-path="url(#SVGID_50_)" fill="#5E140F" d="M16.303,20.498l-0.978,0.57c-1.935,0-3.651,0.417-5.099,1.263l0.977-0.571
			C12.652,20.914,14.368,20.498,16.303,20.498"/>
	</g>
	<g>
		<defs>
			<path id="SVGID_51_" d="M9.372,11.584c-0.473,0.276-0.853,0.68-1.178,1.187c-0.349,0.54-0.502,1.203-0.623,1.934
				c-0.114,0.693-0.062,1.316-0.031,1.869c0.078,1.346,1.321,1.588,2.476,1.588c0.279,0,0.55,0.011,0.815,0.011
				c0.571,0,1.115-0.049,1.644-0.358l0.978-0.571c-0.53,0.311-1.073,0.359-1.644,0.359c-0.266,0-0.537-0.011-0.816-0.011
				c-1.154,0-2.397-0.243-2.475-1.588c-0.032-0.554-0.083-1.178,0.031-1.87c0.121-0.73,0.273-1.394,0.623-1.933
				c0.326-0.507,0.705-0.91,1.178-1.187L9.372,11.584z"/>
		</defs>
		<clipPath id="SVGID_52_">
			<use xlink:href="#SVGID_51_"  overflow="visible"/>
		</clipPath>
		<path clip-path="url(#SVGID_52_)" fill="#5E140F" d="M13.452,17.242l-0.978,0.571c-0.529,0.31-1.073,0.358-1.644,0.358
			c-0.265,0-0.537-0.011-0.815-0.011c-1.154,0-2.397-0.243-2.476-1.588c-0.031-0.553-0.083-1.177,0.032-1.869
			c0.121-0.73,0.273-1.394,0.623-1.934c0.326-0.507,0.705-0.91,1.177-1.187l0.978-0.57c-0.473,0.276-0.852,0.68-1.178,1.187
			c-0.349,0.54-0.501,1.202-0.622,1.933c-0.114,0.692-0.063,1.317-0.031,1.87c0.079,1.345,1.321,1.588,2.476,1.588
			c0.279,0,0.55,0.01,0.815,0.01C12.379,17.601,12.923,17.553,13.452,17.242"/>
	</g>
	<g>
		<path fill="#9A2021" d="M11.674,12.381c-0.459,1.092-0.736,2.296-0.795,3.638c-0.033,0.208,0.19,0.301,0.433,0.301
			c0.264,0,0.551-0.109,0.555-0.298l0.02-0.987l-0.308-0.028l0.037-0.945l2.896-0.06l-0.197,2.462
			c-0.803,1.02-1.623,1.138-2.507,1.138c-0.265,0-0.537-0.01-0.815-0.01c-1.154,0-2.397-0.243-2.476-1.588
			c-0.032-0.553-0.083-1.178,0.031-1.87c0.121-0.73,0.273-1.393,0.623-1.934c0.648-1.008,1.506-1.607,2.895-1.607
			c0.031,0,0.062,0,0.093,0.001c0.632,0.012,1.513,0.148,1.805,0.282c0.291,0.134,0.695,0.355,0.856,0.635
			c0.16,0.281,0.092,1.345,0.125,1.778l-2.397-0.006c-0.029-0.252,0.018-0.905-0.127-1.039c-0.055-0.051-0.163-0.076-0.28-0.076
			C11.951,12.167,11.736,12.235,11.674,12.381"/>
		<polygon fill="#5D120F" points="12.091,27.438 11.113,28.01 11.126,26.667 12.104,26.096 		"/>
		<polygon fill="#5D120F" points="15.501,27.438 14.524,28.01 11.113,28.01 12.091,27.438 		"/>
		<polygon fill="#5D120F" points="11.671,27.438 10.694,28.01 7.409,28.01 8.386,27.438 		"/>
	</g>
	<g>
		<defs>
			<path id="SVGID_53_" d="M10.928,23.183C9.581,23.97,8.32,25.808,7.409,28.01l0.978-0.571c0.912-2.202,2.172-4.04,3.519-4.827
				L10.928,23.183z"/>
		</defs>
		<clipPath id="SVGID_54_">
			<use xlink:href="#SVGID_53_"  overflow="visible"/>
		</clipPath>
		<path clip-path="url(#SVGID_54_)" fill="#5E140F" d="M8.386,27.438L7.409,28.01c0.912-2.202,2.171-4.04,3.519-4.827l0.978-0.571
			C10.558,23.398,9.298,25.237,8.386,27.438"/>
	</g>
	<g>
		<path fill="#9A2021" d="M12.091,27.438l0.013-1.343l-0.433,1.343H8.386c1.136-2.743,2.813-4.925,4.527-5.206l1.208-0.015
			l0.095,4.135l2.624-4.21l3.578,0.048l-1.48,5.248h-3.154l0.252-1.031l-0.534,1.031H12.091z"/>
		<polygon fill="#5D120F" points="4.619,28.003 3.641,28.574 6.483,19.722 7.46,19.151 		"/>
		<polygon fill="#5D120F" points="6.803,27.974 5.826,28.544 3.641,28.574 4.619,28.003 		"/>
		<path fill="#9A2021" d="M16.303,20.498c-4.676,0-8.077,2.434-9.5,7.476l-2.184,0.029l2.842-8.852l31.604,0.031l0.024,1.315H16.303
			z"/>
		<polygon fill="#5D120F" points="2.118,23.735 1.141,24.307 5.54,4.847 6.518,4.276 		"/>
	</g>
	<g>
		<defs>
			<path id="SVGID_55_" d="M1.14,24.307c-0.32,0.3-0.669,0.681-0.084,1.354l0.978-0.57c-0.584-0.675-0.236-1.055,0.084-1.355
				L1.14,24.307z"/>
		</defs>
		<clipPath id="SVGID_56_">
			<use xlink:href="#SVGID_55_"  overflow="visible"/>
		</clipPath>
		<path clip-path="url(#SVGID_56_)" fill="#5E140F" d="M2.033,25.09l-0.978,0.571c-0.585-0.674-0.235-1.054,0.085-1.354l0.977-0.571
			C1.797,24.036,1.448,24.417,2.033,25.09"/>
	</g>
	<g>
		<defs>
			<path id="SVGID_57_" d="M1.056,25.661c0.184,0.499,0.446,1.351-0.017,1.621l0.978-0.571c0.463-0.271,0.201-1.121,0.017-1.62
				L1.056,25.661z"/>
		</defs>
		<clipPath id="SVGID_58_">
			<use xlink:href="#SVGID_57_"  overflow="visible"/>
		</clipPath>
		<path clip-path="url(#SVGID_58_)" fill="#5E140F" d="M2.017,26.711l-0.978,0.571c0.463-0.271,0.201-1.122,0.016-1.621l0.978-0.57
			C2.217,25.59,2.479,26.44,2.017,26.711"/>
	</g>
	<g>
		<defs>
			<path id="SVGID_59_" d="M1.632,27.466c-0.04,0-0.081-0.001-0.122-0.002l-0.978,0.57c0.041,0.002,0.082,0.002,0.122,0.002
				c0.37,0,0.684-0.068,0.934-0.214l0.977-0.57C2.315,27.397,2.001,27.466,1.632,27.466"/>
		</defs>
		<clipPath id="SVGID_60_">
			<use xlink:href="#SVGID_59_"  overflow="visible"/>
		</clipPath>
		<path clip-path="url(#SVGID_60_)" fill="#5E140F" d="M2.565,27.252l-0.977,0.571c-0.25,0.145-0.564,0.213-0.934,0.213
			c-0.04,0-0.081,0-0.122-0.002l0.978-0.571c0.041,0.002,0.082,0.003,0.122,0.003C2.001,27.466,2.315,27.397,2.565,27.252"/>
	</g>
	<g>
		<defs>
			<path id="SVGID_61_" d="M0.144,27.368c-0.107,0.062-0.156,0.188-0.142,0.313c0.022,0.178,0.172,0.354,0.53,0.353l0.978-0.57
				c-0.358,0.001-0.508-0.176-0.53-0.353c-0.014-0.126,0.035-0.251,0.141-0.313L0.144,27.368z"/>
		</defs>
		<clipPath id="SVGID_62_">
			<use xlink:href="#SVGID_61_"  overflow="visible"/>
		</clipPath>
		<path clip-path="url(#SVGID_62_)" fill="#5E140F" d="M1.51,27.463l-0.977,0.571c-0.358,0.002-0.507-0.175-0.53-0.352
			c-0.015-0.126,0.035-0.252,0.141-0.314l0.978-0.569c-0.106,0.061-0.156,0.187-0.141,0.312C1.002,27.288,1.152,27.465,1.51,27.463"
			/>
	</g>
	<g>
		<path fill="#9A2021" d="M7.137,5.395L2.969,23.973c0.669,2.516,0.065,3.493-1.337,3.493c-0.04,0-0.081-0.001-0.122-0.003
			c-0.358,0.002-0.507-0.175-0.529-0.352s0.085-0.354,0.297-0.354c0.161,0.026,0.27,0.038,0.366,0.038
			c0.944,0,0.61-1.105,0.39-1.705c-0.584-0.675-0.236-1.055,0.084-1.355l4.4-19.459l14.37,5.765l-2.024,0.028L8.783,5.968
			l4.206,4.071l-1.184,0.086L7.137,5.395z"/>
		<polygon fill="#5D120F" points="44.572,30.54 43.594,31.11 41.513,32.191 42.49,31.621 		"/>
		<polygon fill="#5D120F" points="41.511,30.016 40.533,30.587 40.921,29.002 41.899,28.432 		"/>
		<polygon fill="#5D120F" points="42.49,31.621 41.513,32.192 37.286,32.133 38.264,31.562 		"/>
		<polygon fill="#5D120F" points="38.264,31.562 37.286,32.133 35.688,30.957 36.665,30.386 		"/>
		<polygon fill="#5D120F" points="36.665,30.386 35.688,30.957 36.242,29.003 37.219,28.432 		"/>
		<polygon fill="#9A2021" points="41.511,30.016 41.899,28.432 45.122,28.432 44.572,30.54 42.49,31.621 38.264,31.562 
			36.665,30.386 37.219,28.432 40.459,28.432 40.063,30.057 		"/>
		<polygon fill="#5D120F" points="32.765,31.595 31.787,32.166 30.712,29.003 31.69,28.432 		"/>
		<polygon fill="#5D120F" points="35.008,31.621 34.031,32.192 31.788,32.166 32.765,31.595 		"/>
		<polygon fill="#9A2021" points="32.765,31.595 31.69,28.432 35.917,28.432 35.009,31.621 		"/>
		<polygon fill="#5D120F" points="27.75,31.538 26.772,32.109 27.54,29.003 28.518,28.432 		"/>
		<polygon fill="#5D120F" points="30.367,31.567 29.389,32.139 26.772,32.109 27.75,31.538 		"/>
		<polygon fill="#9A2021" points="27.75,31.538 28.518,28.432 31.166,28.432 30.367,31.567 		"/>
		<polygon fill="#5D120F" points="27.171,31.621 26.193,32.192 23.106,32.192 24.083,31.621 		"/>
		<polygon fill="#5D120F" points="24.083,31.621 23.106,32.192 23.016,30.612 23.994,30.042 		"/>
		<polygon fill="#5D120F" points="23.994,30.042 23.016,30.613 21.308,30.628 22.285,30.058 		"/>
		<polygon fill="#5D120F" points="21.85,31.621 20.873,32.192 17.53,32.192 18.508,31.621 		"/>
		<polygon fill="#5D120F" points="18.508,31.621 17.53,32.192 19.132,29.003 20.109,28.432 		"/>
		<polygon fill="#9A2021" points="24.704,28.451 27.226,28.432 27.171,31.621 24.083,31.621 23.994,30.042 22.285,30.058 
			21.85,31.621 18.508,31.621 20.109,28.432 22.624,28.432 22.596,28.493 		"/>
		<polygon fill="#9A2021" points="15.542,28.432 18.658,28.432 17.769,31.58 14.779,31.557 		"/>
		<polygon fill="#5D120F" points="17.769,31.58 16.792,32.151 13.801,32.127 14.779,31.557 		"/>
		<polygon fill="#5D120F" points="14.779,31.557 13.801,32.126 14.564,29.003 15.542,28.432 		"/>
		<polygon fill="#5D120F" points="13.373,31.545 12.396,32.116 11.072,32.105 12.049,31.534 		"/>
		<polygon fill="#5D120F" points="12.049,31.534 11.072,32.105 11.103,29.003 12.08,28.432 		"/>
		<polygon fill="#9A2021" points="12.08,28.432 14.987,28.432 13.373,31.546 12.05,31.534 		"/>
	</g>
	<g>
		<defs>
			<path id="SVGID_63_" d="M7.029,29.002c-0.347,0.992-0.622,2.033-0.803,3.066l0.978-0.571c0.182-1.032,0.457-2.073,0.804-3.065
				L7.029,29.002z"/>
		</defs>
		<clipPath id="SVGID_64_">
			<use xlink:href="#SVGID_63_"  overflow="visible"/>
		</clipPath>
		<path clip-path="url(#SVGID_64_)" fill="#5E140F" d="M7.203,31.497l-0.977,0.571c0.182-1.033,0.456-2.073,0.803-3.066l0.977-0.57
			C7.66,29.424,7.385,30.464,7.203,31.497"/>
	</g>
	<g>
		<polygon fill="#5D120F" points="10.354,31.521 9.377,32.093 6.226,32.068 7.203,31.497 		"/>
		<path fill="#9A2021" d="M7.203,31.497c0.182-1.033,0.457-2.073,0.803-3.065h3.344l-0.996,3.09L7.203,31.497z"/>
	</g>
</g>
</svg>
